<!DOCTYPE svg PUBLIC "-//W3C//DTD SVG 1.1//EN" "http://www.w3.org/Graphics/SVG/1.1/DTD/svg11.dtd">
<!-- Uploaded to: SVG Repo, www.svgrepo.com, Transformed by: SVG Repo Mixer Tools -->
<svg width="800px" height="800px" viewBox="0 0 24 24" xmlns="http://www.w3.org/2000/svg" fill="#000000" transform="matrix(1, 0, 0, 1, 0, 0)">
<g id="SVGRepo_bgCarrier" stroke-width="0"/>
<g id="SVGRepo_tracerCarrier" stroke-linecap="round" stroke-linejoin="round"/>
<g id="SVGRepo_iconCarrier"> <defs> <style>.cls-1{fill:#da3380;}.cls-2{fill:#f55fa6;}.cls-3{fill:#6c2e7c;}</style> </defs> <g id="Icons"> <path class="cls-1" d="M23,12A11,11,0,0,1,1,12a10.827,10.827,0,0,1,.29-2.5,11,11,0,0,1,21.42,0A10.827,10.827,0,0,1,23,12Z"/> <ellipse class="cls-2" cx="12" cy="9.5" rx="10.71" ry="8.5"/> </g> <g data-name="Layer 4" id="Layer_4"> <path class="cls-3" d="M12,24A12,12,0,1,0,0,12,12.013,12.013,0,0,0,12,24ZM12,2A10,10,0,1,1,2,12,10.011,10.011,0,0,1,12,2Z"/> <path class="cls-3" d="M6,13h9.586l-2.293,2.293a1,1,0,1,0,1.414,1.414l4-4a1,1,0,0,0,0-1.414l-4-4a1,1,0,1,0-1.414,1.414L15.586,11H6a1,1,0,0,0,0,2Z"/> </g> </g>
</svg>