<svg xmlns="http://www.w3.org/2000/svg" width="222.71715272818588" height="252.525" viewBox="0 0 312.5 354.3241350445527" class="looka-1j8o68f"><defs id="SvgjsDefs2134"></defs><g id="SvgjsG2135" featurekey="rootContainer" transform="matrix(6.3004014813942035,0,0,6.3004014813942035,0.000046358657472104394,0.02629501308574099)" fill="#facf38"><path xmlns="http://www.w3.org/2000/svg" d="M23.11 55.78L1.69 43.41A3.39 3.39 0 0 1 0 40.48V15.75a3.39 3.39 0 0 1 1.69-2.94L23.11.45a3.39 3.39 0 0 1 3.39 0l21.41 12.37a3.39 3.39 0 0 1 1.69 2.94v24.72a3.39 3.39 0 0 1-1.69 2.94L26.5 55.78a3.39 3.39 0 0 1-3.39 0z"></path></g><g id="SvgjsG2136" featurekey="symbolFeature-0" transform="matrix(1.079622154485461,0,0,1.079622154485461,101.42510400327004,106.75760404059332)" fill="#874e2b"><path xmlns="http://www.w3.org/2000/svg" d="M87,16.4c-0.4-0.3-0.9-0.3-1.3-0.1l-6,2.6v-3.1c0-0.4-0.2-0.7-0.4-1c-0.3-0.3-0.7-0.4-1-0.3c-2,0.2-3.8,0.6-5.6,1.1v-3  c0-0.4-0.2-0.8-0.5-1c-0.3-0.3-0.7-0.4-1.1-0.3c-2.6,0.4-4.9,1.2-6.8,2.1V9.9c0-0.4-0.2-0.8-0.5-1.1c-0.3-0.2-0.7-0.3-1.1-0.2  c-5,1.5-8.7,5.7-10.6,12.2c-1.2,4.2-1.4,8-1.4,9l-0.9,0c0-1.1-0.2-4.9-1.4-9c-1.9-6.5-5.6-10.7-10.6-12.2c-0.4-0.1-0.8,0-1.1,0.2  c-0.3,0.3-0.5,0.7-0.5,1.1v3.5c-1.9-0.9-4.2-1.7-6.8-2.1c-0.4-0.1-0.8,0-1.1,0.3c-0.3,0.3-0.5,0.6-0.5,1v3c-1.7-0.5-3.6-0.9-5.6-1.1  c-0.4,0-0.8,0.1-1,0.3c-0.3,0.3-0.4,0.6-0.4,1v2.8l-5.3-2.4c-0.4-0.2-0.9-0.2-1.4,0.1c-0.4,0.3-0.6,0.7-0.6,1.2v58.4  c0,0.6,0.3,1.1,0.9,1.3L44.6,90c0.2,0.1,0.4,0.1,0.5,0.1l0.5,0c0.1,0,0.1,0,0.2,0h8.3c0,0,0,0,0,0l0.7,0c0,0,0,0,0,0  c0.2,0,0.4,0,0.5-0.1l31.4-12.6c0.5-0.2,0.9-0.7,0.9-1.3V17.6C87.6,17.1,87.4,16.7,87,16.4z M78.3,15.8L78.3,15.8l0.1,3.7L65,25.3  v-1.1l-3.4,1.5v1.1l-5.1,2.2C58.8,25.3,65.3,17.2,78.3,15.8L78.3,15.8z M45.8,88.8c-0.1,0-0.1-0.1-0.1-0.2V31.1h8.7v57.6  c0,0.1-0.1,0.2-0.2,0.2L45.8,88.8z M71.2,12.6L71.2,12.6l0.1,3.4c-10.5,3.5-15.4,11.3-16.7,13.8l-0.7,0C54.1,27.5,55.9,15,71.2,12.6  L71.2,12.6z M62.8,9.8C62.9,9.8,62.9,9.9,62.8,9.8l0.1,4.3c-8.8,4.9-10,14.1-10.2,15.8l-1,0C51.7,27.5,52.5,12.8,62.8,9.8z M37,9.9  c0,0,0-0.1,0.1-0.1c10.3,3.1,11.1,17.8,11.1,20l-1,0C47.1,28.2,45.8,19,37,14.1V9.9z M28.7,12.7l0.1-0.1c15.3,2.5,17,15.1,17.2,17.3  l-0.6,0c-1.3-2.4-6.1-10.3-16.7-13.8V12.7z M21.6,15.9l0.1-0.1c13,1.4,19.5,9.6,21.8,13.4l-21.9-9.9V15.9z M14.4,76.1V17.6  c0-0.1,0.1-0.1,0.1-0.2c0,0,0.1,0,0.1,0c0,0,0,0,0.1,0l29.8,13.4v57.7L14.5,76.2C14.4,76.2,14.4,76.1,14.4,76.1z M86.4,76.1  c0,0.1,0,0.1-0.1,0.2L55.6,88.6V30.8l6-2.6v19.1l1.7-3.5l1.7,3.5V26.7l21.1-9.2c0.1,0,0.1,0,0.2,0c0,0,0.1,0.1,0.1,0.2V76.1z"></path></g><g id="SvgjsG2137" featurekey="nameFeature-0" transform="matrix(0.5314297785074052,0,0,0.5314297785074052,54.48207794914294,217.92687042628475)" fill="#692201"><path d="M28.571 15.713999999999999 l0 6.9714 l-3.0286 3.0286 l3.0286 3.0286 l0 6.9714 l-4.2857 4.2857 l-21.429 0 l0 -28.571 l21.429 0 z M21.143 22.571 l0 -4.8571 l-10.857 0 l0 4.8571 l10.857 0 z M21.143 33.7143 l0 -4.8571 l-10.857 0 l0 4.8571 l10.857 0 z M52.91471428571428 11.428999999999998 l7.4286 0 l0 28.571 l-7.4286 0 l0 -11.143 l-10.286 0 l0 11.143 l-7.4857 0 l0.057143 -28.571 l7.4286 0 l0 11.143 l10.286 0 l0 -11.143 z M66.91424285714285 40 l0 -24.286 l4.2857 -4.2857 l16.571 0 l4.2857 4.2857 l0 24.286 l-7.4286 0 l0 -8 l-10.286 0 l0 8 l-7.4286 0 z M74.34314285714285 25.714 l10.286 0 l0 -8 l-10.286 0 l0 8 z M116.62842857142857 17.714 l-10.571 0 l0 16 l10.857 0 l0 -4.8571 l-6.5714 0 l0 -6.2857 l14 0 l0 13.143 l-4.2857 4.2857 l-17.143 0 l-4.2857 -4.2857 l0 -20 l4.2857 -4.2857 l17.143 0 l4.2857 4.2857 l0 4.2857 l-5.4286 0 z M157.77114285714285 11.428999999999998 l6.8571 0 l0 3.4286 l-6.9714 25.143 l-6.8571 0 l-3.7143 -13.486 l-3.7143 13.486 l-6.8571 0 l-7.0286 -25.143 l0 -3.4286 l6.8571 0 l4.1714 16.914 l4.1143 -16.914 l4.8571 0 l4.1714 16.914 z M169.7713857142857 40 l0 -24.286 l4.2857 -4.2857 l16.571 0 l4.2857 4.2857 l0 24.286 l-7.4286 0 l0 -8 l-10.286 0 l0 8 l-7.4286 0 z M177.2002857142857 25.714 l10.286 0 l0 -8 l-10.286 0 l0 8 z M222.34257142857143 11.428999999999998 l4.2857 4.2857 l0 20 l-4.2857 4.2857 l-20.857 0 l0 -28.571 l20.857 0 z M219.19957142857143 33.7143 l0 -16 l-10.286 0 l0 16 l10.286 0 z M251.19985714285716 17.714 l-10.571 0 l0 16 l10.857 0 l0 -4.8571 l-6.5714 0 l0 -6.2857 l14 0 l0 13.143 l-4.2857 4.2857 l-17.143 0 l-4.2857 -4.2857 l0 -20 l4.2857 -4.2857 l17.143 0 l4.2857 4.2857 l0 4.2857 l-5.4286 0 z M289.7715714285714 17.714 l-16.857 0 l0 4.8571 l14.571 0 l0 6.2857 l-14.571 0 l0 4.8571 l16.857 0 l0 6.2857 l-20 0 l-4.2857 -4.2857 l0 -24.286 l24.286 0 l0 6.2857 z M320.6287142857143 17.714 l-16.857 0 l0 4.8571 l14.571 0 l0 6.2857 l-14.571 0 l0 4.8571 l16.857 0 l0 6.2857 l-20 0 l-4.2857 -4.2857 l0 -24.286 l24.286 0 l0 6.2857 z M325.1999971428571 17.714 l0 -6.2857 l24.286 0 l0 6.2857 l-8.4571 0 l0 22.286 l-7.4286 0 l0 -22.286 l-8.4 0 z M354.05709999999993 40 l0 -24.286 l4.2857 -4.2857 l16.571 0 l4.2857 4.2857 l0 24.286 l-7.4286 0 l0 -8 l-10.286 0 l0 8 l-7.4286 0 z M361.48599999999993 25.714 l10.286 0 l0 -8 l-10.286 0 l0 8 z"></path></g></svg>

