<svg width="22" height="16" viewBox="0 0 22 16" fill="none" xmlns="http://www.w3.org/2000/svg">
<path d="M1.53954 0H20.014C20.4224 0 20.8139 0.162201 21.1027 0.450921C21.3914 0.739642 21.5536 1.13123 21.5536 1.53954C21.5536 1.94785 21.3914 2.33944 21.1027 2.62816C20.8139 2.91688 20.4224 3.07908 20.014 3.07908H1.53954C1.13123 3.07908 0.739642 2.91688 0.450921 2.62816C0.162201 2.33944 0 1.94785 0 1.53954C0 1.13123 0.162201 0.739642 0.450921 0.450921C0.739642 0.162201 1.13123 0 1.53954 0ZM1.53954 12.3163H20.014C20.4224 12.3163 20.8139 12.4785 21.1027 12.7673C21.3914 13.056 21.5536 13.4476 21.5536 13.8559C21.5536 14.2642 21.3914 14.6558 21.1027 14.9445C20.8139 15.2332 20.4224 15.3954 20.014 15.3954H1.53954C1.13123 15.3954 0.739642 15.2332 0.450921 14.9445C0.162201 14.6558 0 14.2642 0 13.8559C0 13.4476 0.162201 13.056 0.450921 12.7673C0.739642 12.4785 1.13123 12.3163 1.53954 12.3163ZM1.53954 6.15817H20.014C20.4224 6.15817 20.8139 6.32037 21.1027 6.60909C21.3914 6.89781 21.5536 7.2894 21.5536 7.69771C21.5536 8.10602 21.3914 8.49761 21.1027 8.78633C20.8139 9.07505 20.4224 9.23725 20.014 9.23725H1.53954C1.13123 9.23725 0.739642 9.07505 0.450921 8.78633C0.162201 8.49761 0 8.10602 0 7.69771C0 7.2894 0.162201 6.89781 0.450921 6.60909C0.739642 6.32037 1.13123 6.15817 1.53954 6.15817Z" fill="white"/>
</svg>
